<?xml version="1.0" encoding="UTF-8"?>
<svg version="1.1" xmlns="http://www.w3.org/2000/svg" width="800" height="800">
<path d="M0 0 C7.24694721 6.62942456 14.19351128 13.53369423 21.11083984 20.50292969 C22.27531525 21.67243768 23.44002761 22.84170979 24.60498047 24.01074219 C26.73901127 26.15284874 28.8716738 28.29629641 31.00268555 30.44140625 C33.59654269 33.04998706 36.19587266 35.65294235 38.79833984 38.25292969 C49.79833984 49.25292969 49.79833984 49.25292969 52.45458984 51.94433594 C54.83176923 54.35926381 54.83176923 54.35926381 57.79833984 56.69042969 C60.87737865 59.320442 63.24912386 62.11543309 65.79833984 65.25292969 C67.45201842 66.93442716 69.12042648 68.59588397 70.79833984 70.25292969 C72.21578104 71.6688214 73.63236783 73.08556871 75.04833984 74.50292969 C75.82177734 75.27636719 76.59521484 76.04980469 77.39208984 76.84667969 C104.79833984 104.25292969 104.79833984 104.25292969 107.46240234 106.95214844 C109.8106422 109.3419486 109.8106422 109.3419486 112.67333984 111.56542969 C115.04602729 113.50262387 117.00614787 115.57276518 118.98583984 117.90917969 C122.77477017 122.28804217 126.80518594 126.37287691 130.92333984 130.44042969 C131.61298828 131.12556641 132.30263672 131.81070313 133.01318359 132.51660156 C134.3439749 133.838487 135.67571502 135.15941811 137.00854492 136.47924805 C139.27938725 138.72964629 141.53973448 140.99025476 143.79833984 143.25292969 C144.64396484 144.09855469 145.48958984 144.94417969 146.36083984 145.81542969 C147.91379681 147.36838666 149.42081241 148.96971628 150.86083984 150.62792969 C152.62464683 152.44695952 152.62464683 152.44695952 154.73583984 152.31542969 C157.6102387 150.83467876 159.56132433 148.54204454 161.79833984 146.25292969 C162.99490503 145.05366307 164.19291701 143.85583886 165.39208984 142.65917969 C166.03017578 142.02109375 166.66826172 141.38300781 167.32568359 140.72558594 C179.98323568 128.06803385 192.64078776 115.41048177 205.29833984 102.75292969 C205.89388672 102.15609375 206.48943359 101.55925781 207.10302734 100.94433594 C208.53375401 99.51690587 209.97714766 98.10218872 211.42333984 96.69042969 C213.87198072 94.25446894 213.87198072 94.25446894 216.11083984 91.37792969 C218.73067296 88.15288196 221.80232716 85.59124961 224.95849609 82.90527344 C226.93786518 81.21822952 226.93786518 81.21822952 228.79833984 78.75292969 C231.16008894 75.80074332 233.84424552 73.53460267 236.70849609 71.08105469 C240.69618788 67.59275608 244.48753101 63.94429592 247.73583984 59.75292969 C249.62012219 57.46895108 251.49132804 55.72912726 253.73583984 53.81542969 C256.20969185 51.70604943 258.20146353 49.76918126 260.29833984 47.25292969 C262.36515841 44.77274741 264.29612961 42.88618563 266.73583984 40.81542969 C269.3381676 38.60223506 271.63099313 36.39272255 273.79833984 33.75292969 C276.54808713 30.41127494 279.63382934 27.67566162 282.91943359 24.87011719 C287.23537376 21.15535788 290.89791945 17.02416232 294.46630859 12.60839844 C294.90587891 12.16109375 295.34544922 11.71378906 295.79833984 11.25292969 C296.45833984 11.25292969 297.11833984 11.25292969 297.79833984 11.25292969 C297.79833984 10.59292969 297.79833984 9.93292969 297.79833984 9.25292969 C306.46652753 0.08874216 316.32743568 -5.7716297 328.92724609 -6.71191406 C339.20147749 -6.83772098 348.32081437 -2.97414911 355.83740234 3.94824219 C362.32101652 11.56842617 366.33093962 21.19440256 365.79833984 31.25292969 C364.38590857 46.88543173 354.7861736 55.97094318 344.18579102 66.43310547 C342.67660892 67.94087564 341.16853005 69.44975076 339.66146851 70.9596405 C335.5841692 75.03836968 331.49167946 79.10153798 327.39621902 83.16202021 C323.11246081 87.41444395 318.84293252 91.68110684 314.57185364 95.94625854 C306.48946332 104.01313134 298.39441648 112.06717764 290.2947076 120.11665714 C281.07085273 129.28455373 271.86125383 138.46671456 262.65280569 147.65008187 C243.71710095 166.53357579 224.76362601 185.39914881 205.79833984 204.25292969 C206.75840618 205.37845032 207.71924228 206.50331438 208.68040466 207.62789917 C209.21538795 208.25437788 209.75037123 208.88085659 210.30156612 209.5263195 C211.8941525 211.36345481 213.54323446 213.11277147 215.27099609 214.82324219 C215.86074219 215.40976562 216.45048828 215.99628906 217.05810547 216.60058594 C217.95045898 217.48037109 217.95045898 217.48037109 218.86083984 218.37792969 C219.45960938 218.9721875 220.05837891 219.56644531 220.67529297 220.17871094 C221.84637171 221.34081098 223.01838083 222.50197435 224.19140625 223.66210938 C226.40213097 225.85066639 228.60045659 228.05148423 230.79833984 230.25292969 C231.69552734 231.15011719 232.59271484 232.04730469 233.51708984 232.97167969 C296.79833984 296.25292969 296.79833984 296.25292969 299.46240234 298.95214844 C301.8106422 301.3419486 301.8106422 301.3419486 304.67333984 303.56542969 C307.8281869 306.13933304 310.36851541 309.11126462 313.00537109 312.20214844 C315.78151085 315.37747168 318.78798462 318.30225111 321.79833984 321.25292969 C323.46653497 322.91809173 325.13283798 324.58507763 326.79833984 326.25292969 C328.21492032 327.66968254 329.6315961 329.0863401 331.04833984 330.50292969 C334.21500651 333.66959635 337.38167318 336.83626302 340.54833984 340.00292969 C341.29019531 340.74438232 342.03205078 341.48583496 342.79638672 342.24975586 C344.39376308 343.84810623 345.98732699 345.45026646 347.57958984 347.05371094 C349.05387334 348.51501659 350.55418818 349.95053629 352.07958984 351.35839844 C361.19569406 359.91277088 365.17617577 368.70342509 365.79833984 381.25292969 C365.3807815 391.20698176 361.26784824 400.40977135 353.92333984 407.19042969 C345.5704226 413.76579581 336.62491596 416.65991165 325.86865234 416.10058594 C311.1481276 413.91127277 302.61149637 404.76573954 292.61816406 394.64038086 C291.11039389 393.13119876 289.60151877 391.62311989 288.09162903 390.11605835 C284.01289985 386.03875905 279.94973155 381.94626931 275.88924932 377.85080886 C271.63682559 373.56705065 267.37016269 369.29752237 263.10501099 365.02644348 C255.03813819 356.94405317 246.9840919 348.84900633 238.93461239 340.74929744 C229.7667158 331.52544257 220.58455497 322.31584367 211.40118766 313.10739553 C192.51769374 294.17169079 173.65212072 275.21821585 154.79833984 256.25292969 C150.13199909 260.14963139 145.71609762 264.19896367 141.44316101 268.52149963 C140.8439535 269.12338055 140.24474599 269.72526147 139.62738067 270.3453812 C137.63858174 272.34416658 135.65343102 274.34653555 133.66821289 276.34887695 C132.23540412 277.79016137 130.80233236 279.23118438 129.36901855 280.67196655 C126.29147354 283.76618357 123.21531165 286.86176683 120.14008141 289.95828438 C115.27274499 294.85833118 110.39937292 299.75234449 105.52461243 304.64500427 C104.70052484 305.47217833 103.87643725 306.29935238 103.02737731 307.15159231 C101.34278667 308.84249036 99.65818719 310.5333796 97.97357905 312.22426021 C86.6323452 323.60844476 75.29562429 334.99706462 63.97338867 346.40014648 C56.32572733 354.10232189 48.66917953 361.79554117 41.00237685 369.47866482 C36.9499838 373.54041841 32.90228757 377.60661755 28.86548424 381.68387032 C25.06852073 385.51877323 21.25997314 389.34178074 17.44237518 393.15613937 C16.04728945 394.55418679 14.65646539 395.95650252 13.27037239 397.36346626 C2.62004545 408.16693005 -6.37320807 415.50918314 -22.20166016 416.25292969 C-33.02616657 415.56050043 -41.88504909 411.25890025 -49.20166016 403.25292969 C-55.42990937 394.06034921 -58.4340279 384.29959147 -56.57666016 373.19042969 C-54.06292444 362.52403761 -48.31683312 354.93455377 -40.14697266 347.94042969 C-37.70751778 345.82427606 -35.45571963 343.56478556 -33.20166016 341.25292969 C-32.03634615 340.08491193 -30.86958198 338.91833985 -29.70166016 337.75292969 C-28.88181641 336.93308594 -28.88181641 336.93308594 -28.04541016 336.09667969 C-10.20166016 318.25292969 -10.20166016 318.25292969 -7.57666016 315.66308594 C-5.51404667 313.56994034 -3.59430218 311.4357102 -1.70166016 309.19042969 C0.92121542 306.15879428 3.60430023 303.69048623 6.79833984 301.25292969 C9.59757727 298.5972429 12.15432886 295.84566053 14.61083984 292.87792969 C17.44302723 289.52018176 20.58516719 286.7151507 23.92333984 283.87011719 C26.34371184 281.78254634 28.56751751 279.5409526 30.79833984 277.25292969 C31.96365385 276.08491193 33.13041802 274.91833985 34.29833984 273.75292969 C34.84490234 273.20636719 35.39146484 272.65980469 35.95458984 272.09667969 C53.79833984 254.25292969 53.79833984 254.25292969 56.42333984 251.66308594 C58.48595333 249.56994034 60.40569782 247.4357102 62.29833984 245.19042969 C64.92121542 242.15879428 67.60430023 239.69048623 70.79833984 237.25292969 C72.47759514 235.59894746 74.14263373 233.9304853 75.79833984 232.25292969 C85.79833984 222.25292969 85.79833984 222.25292969 88.49755859 219.58886719 C90.81623112 217.33258536 90.81623112 217.33258536 92.61083984 214.87792969 C95.64161448 211.24100012 99.18463441 208.29651169 102.79833984 205.25292969 C98.90163814 200.58658894 94.85230586 196.17068746 90.5297699 191.89775085 C89.92788898 191.29854334 89.32600806 190.69933583 88.70588833 190.08197051 C86.70710295 188.09317158 84.70473398 186.10802087 82.70239258 184.12280273 C81.26110817 182.68999396 79.82008515 181.25692221 78.37930298 179.8236084 C75.28508596 176.74606339 72.1895027 173.66990149 69.09298515 170.59467125 C64.19293835 165.72733484 59.29892504 160.85396276 54.40626526 155.97920227 C53.57909121 155.15511468 52.75191715 154.33102709 51.89967722 153.48196715 C50.20877917 151.79737651 48.51788993 150.11277703 46.82700932 148.42816889 C35.44282477 137.08693504 24.05420491 125.75021413 12.65112305 114.42797852 C4.94894764 106.78031718 -2.74427164 99.12376937 -10.42739528 91.4569667 C-14.48914888 87.40457364 -18.55534802 83.35687741 -22.63260078 79.32007408 C-26.46750369 75.52311057 -30.29051121 71.71456298 -34.10486984 67.89696503 C-35.50291726 66.5018793 -36.90523299 65.11105523 -38.31219673 63.72496223 C-48.73963253 53.44533316 -57.05807693 43.92414963 -57.23291016 28.49511719 C-56.64139474 17.87741545 -52.17355043 8.72922741 -44.31884766 1.52636719 C-31.91979482 -8.34425134 -12.90189693 -10.23796567 0 0 Z " fill="#FFFFFF" transform="translate(246.20166015625,195.7470703125)"/>
</svg>
